<?xml version="1.0" standalone="no"?>
<!DOCTYPE svg PUBLIC "-//W3C//DTD SVG 20010904//EN"
 "http://www.w3.org/TR/2001/REC-SVG-20010904/DTD/svg10.dtd">
<svg version="1.0" xmlns="http://www.w3.org/2000/svg"
 width="806.000000pt" height="772.000000pt" viewBox="0 0 806.000000 772.000000"
 preserveAspectRatio="xMidYMid meet">
<metadata>
Created by potrace 1.16, written by Peter Selinger 2001-2019
</metadata>
<g transform="translate(0.000000,772.000000) scale(0.100000,-0.100000)"
fill="#000000" stroke="none">
<path d="M3725 7434 c-782 -61 -1544 -354 -2114 -813 -430 -345 -744 -734
-981 -1216 -225 -457 -344 -934 -357 -1435 -8 -315 20 -586 93 -890 157 -658
506 -1266 996 -1735 540 -517 1206 -855 1968 -999 389 -74 843 -85 1245 -30
1023 138 1960 686 2538 1483 157 217 350 572 433 796 121 326 195 644 225 958
15 159 6 581 -14 717 -68 443 -170 774 -352 1135 -152 301 -306 529 -520 770
-427 481 -995 853 -1620 1061 -258 85 -483 137 -780 180 -106 15 -637 27 -760
18z m585 -174 c219 -19 590 -90 590 -112 0 -5 6 -6 13 -2 6 4 3 -2 -7 -14 -13
-16 -23 -19 -31 -12 -9 7 -16 6 -25 -5 -7 -8 -17 -12 -23 -8 -6 4 -7 1 -3 -6
6 -9 13 -8 29 6 18 14 17 13 -2 -9 -17 -20 -28 -25 -36 -18 -9 7 -16 6 -25 -5
-7 -8 -17 -12 -23 -8 -6 4 -7 1 -3 -6 6 -9 13 -8 29 6 18 14 17 13 -2 -9 -17
-20 -28 -25 -36 -18 -9 7 -16 6 -25 -5 -7 -8 -17 -12 -23 -8 -6 4 -7 1 -3 -6
6 -9 13 -8 29 6 18 14 17 13 -2 -9 -18 -21 -27 -25 -37 -17 -10 8 -12 6 -9
-10 3 -15 0 -19 -8 -14 -20 13 -34 11 -34 -3 0 -11 3 -11 16 -1 14 11 14 10 2
-6 -10 -13 -17 -15 -27 -6 -10 8 -12 6 -9 -10 3 -15 0 -19 -8 -14 -20 13 -34
11 -34 -3 0 -11 3 -11 16 -1 14 11 14 10 2 -6 -10 -13 -17 -15 -27 -6 -10 8
-12 6 -9 -10 3 -15 0 -19 -8 -14 -20 13 -34 11 -34 -3 0 -11 4 -11 16 -2 9 7
5 0 -8 -15 -17 -19 -28 -24 -36 -17 -9 7 -16 6 -25 -5 -7 -8 -17 -12 -23 -8
-6 4 -7 1 -3 -6 6 -9 13 -8 29 6 18 14 17 13 -2 -9 -17 -20 -28 -25 -36 -18
-9 7 -16 6 -25 -5 -7 -8 -17 -12 -23 -8 -6 4 -7 1 -3 -6 6 -9 13 -8 29 6 18
14 17 13 -2 -9 -20 -23 -27 -26 -40 -16 -9 7 -13 8 -8 3 4 -4 -3 -19 -15 -32
-16 -17 -25 -20 -34 -12 -10 8 -12 6 -9 -10 3 -15 0 -19 -8 -14 -20 13 -34 11
-34 -3 0 -11 3 -11 16 -1 14 11 14 10 2 -6 -10 -13 -17 -15 -27 -6 -10 8 -12
6 -9 -10 3 -15 0 -19 -8 -14 -20 13 -34 11 -34 -3 0 -11 3 -11 16 -1 14 11 14
10 2 -6 -10 -13 -17 -15 -27 -6 -10 8 -12 6 -9 -11 3 -17 1 -19 -9 -11 -10 8
-17 7 -26 -4 -7 -8 -17 -12 -23 -8 -6 4 -7 1 -3 -6 6 -9 13 -8 29 6 18 14 17
13 -2 -9 -17 -20 -28 -25 -36 -18 -9 7 -16 6 -25 -5 -7 -8 -17 -12 -23 -8 -6
4 -7 1 -3 -6 6 -9 13 -8 29 6 18 14 17 13 -2 -9 -17 -20 -28 -25 -36 -18 -9 7
-16 6 -25 -5 -7 -8 -17 -12 -23 -8 -6 4 -7 1 -3 -6 6 -9 13 -8 29 6 18 14 17
13 -2 -9 -20 -23 -27 -26 -40 -16 -9 7 -13 8 -8 3 4 -4 -3 -19 -15 -32 -16
-17 -25 -20 -34 -12 -10 8 -12 6 -9 -10 3 -15 0 -19 -8 -14 -20 13 -34 11 -34
-3 0 -11 3 -11 16 -1 14 11 14 10 2 -6 -10 -13 -17 -15 -27 -6 -10 8 -12 6 -9
-10 3 -15 0 -19 -8 -14 -20 13 -34 11 -34 -3 0 -11 3 -11 16 -1 14 11 14 10 2
-6 -10 -13 -17 -15 -27 -6 -10 8 -12 6 -9 -11 3 -17 1 -19 -9 -11 -10 8 -17 7
-26 -4 -7 -8 -17 -12 -23 -8 -6 4 -7 1 -3 -6 6 -9 13 -8 29 6 18 14 17 13 -2
-9 -17 -20 -28 -25 -36 -18 -9 7 -16 6 -25 -5 -7 -8 -17 -12 -23 -8 -6 4 -7 1
-3 -6 6 -9 13 -8 29 6 18 14 17 13 -2 -9 -17 -20 -28 -25 -36 -18 -9 7 -16 6
-25 -5 -7 -8 -17 -12 -23 -8 -6 4 -7 1 -3 -6 6 -9 13 -8 29 6 18 14 17 13 -2
-9 -20 -23 -27 -26 -40 -16 -9 7 -13 8 -8 3 4 -4 -3 -19 -15 -32 -16 -17 -25
-20 -34 -12 -10 8 -12 6 -9 -10 3 -15 0 -19 -8 -14 -20 13 -34 11 -34 -3 0
-11 3 -11 16 -1 14 11 14 10 2 -6 -10 -13 -17 -15 -27 -6 -10 8 -12 6 -9 -10
3 -15 0 -19 -8 -14 -20 13 -34 11 -34 -3 0 -11 3 -11 16 -1 14 11 14 10 2 -6
-10 -13 -17 -15 -27 -6 -10 8 -12 6 -9 -11 3 -17 1 -19 -9 -11 -10 8 -17 7
-26 -4 -7 -8 -17 -12 -23 -8 -6 4 -7 1 -3 -6 6 -9 13 -8 29 6 18 14 17 13 -2
-9 -17 -20 -28 -25 -36 -18 -9 7 -16 6 -25 -5 -7 -8 -17 -12 -23 -8 -6 4 -7 1
-3 -6 6 -9 13 -8 29 6 18 14 17 13 -2 -9 -17 -20 -28 -25 -36 -18 -9 7 -16 6
-25 -5 -7 -8 -17 -12 -23 -8 -6 4 -7 1 -3 -6 6 -9 13 -8 29 6 18 14 17 13 -2
-9 -18 -21 -27 -25 -37 -17 -10 8 -12 6 -9 -10 3 -15 0 -19 -8 -14 -20 13 -34
11 -34 -3 0 -11 3 -11 16 -1 14 11 14 10 2 -6 -10 -13 -17 -15 -27 -6 -10 8
-12 6 -9 -10 3 -15 0 -19 -8 -14 -20 13 -34 11 -34 -3 0 -11 3 -11 16 -1 14
11 14 10 2 -6 -10 -13 -17 -15 -27 -6 -10 8 -12 6 -9 -10 3 -15 0 -19 -8 -14
-20 13 -34 11 -34 -3 0 -11 4 -11 16 -2 9 7 5 0 -8 -15 -17 -19 -28 -24 -36
-17 -9 7 -16 6 -25 -5 -7 -8 -17 -12 -23 -8 -6 4 -7 1 -3 -6 6 -9 13 -8 29 6
18 14 17 13 -2 -9 -17 -20 -28 -25 -36 -18 -9 7 -16 6 -25 -5 -7 -8 -17 -12
-23 -8 -6 4 -7 1 -3 -6 6 -9 13 -8 29 6 18 14 17 13 -2 -9 -17 -20 -28 -25
-36 -18 -9 7 -16 6 -25 -5 -7 -8 -17 -12 -23 -8 -6 4 -7 1 -3 -6 6 -9 13 -8
29 6 18 14 17 13 -2 -9 -18 -21 -27 -25 -37 -17 -10 8 -12 6 -9 -10 3 -15 0
-19 -8 -14 -20 13 -34 11 -34 -3 0 -11 3 -11 16 -1 14 11 14 10 2 -6 -10 -13
-17 -15 -27 -6 -10 8 -12 6 -9 -10 3 -15 0 -19 -8 -14 -20 13 -34 11 -34 -3 0
-11 3 -11 16 -1 14 11 14 10 2 -6 -10 -13 -17 -15 -27 -6 -10 8 -12 6 -9 -11
3 -17 1 -19 -9 -11 -10 8 -17 7 -26 -4 -7 -8 -17 -12 -23 -8 -6 4 -7 1 -3 -6
6 -9 13 -8 29 6 18 14 17 13 -2 -9 -17 -20 -28 -25 -36 -18 -9 7 -16 6 -25 -5
-7 -8 -17 -12 -23 -8 -6 4 -7 1 -3 -6 6 -9 13 -8 29 6 18 14 17 13 -2 -9 -17
-20 -28 -25 -36 -18 -9 7 -16 6 -25 -5 -7 -8 -17 -12 -23 -8 -6 4 -7 1 -3 -6
6 -9 13 -8 29 6 18 14 17 13 -2 -9 -20 -23 -27 -26 -40 -16 -9 7 -13 8 -8 3 4
-4 -3 -19 -15 -32 -16 -17 -25 -20 -34 -12 -10 8 -12 6 -9 -10 3 -15 0 -19 -8
-14 -20 13 -34 11 -34 -3 0 -11 3 -11 16 -1 14 11 14 10 2 -6 -10 -13 -17 -15
-27 -6 -10 8 -12 6 -9 -10 3 -15 0 -19 -8 -14 -20 13 -34 11 -34 -3 0 -11 3
-11 16 -1 14 11 14 10 2 -6 -10 -13 -17 -15 -27 -6 -10 8 -12 6 -9 -11 3 -17
1 -19 -9 -11 -10 8 -17 7 -26 -4 -7 -8 -17 -12 -23 -8 -6 4 -7 1 -3 -6 6 -9
13 -8 29 6 18 14 17 13 -2 -9 -17 -20 -28 -25 -36 -18 -9 7 -16 6 -25 -5 -7
-8 -17 -12 -23 -8 -6 4 -7 1 -3 -6 6 -9 13 -8 29 6 18 14 17 13 -2 -9 -17 -20
-28 -25 -36 -18 -9 7 -16 6 -25 -5 -7 -8 -17 -12 -23 -8 -6 4 -7 1 -3 -6 6 -9
13 -8 29 6 18 14 17 13 -2 -9 -20 -23 -27 -26 -40 -16 -9 7 -13 8 -8 3 4 -4
-3 -19 -15 -32 -16 -17 -25 -20 -34 -12 -10 8 -12 6 -9 -10 3 -15 0 -19 -8
-14 -20 13 -34 11 -34 -3 0 -11 3 -11 16 -1 14 11 14 10 2 -6 -10 -13 -17 -15
-27 -6 -10 8 -12 6 -9 -10 3 -15 0 -19 -8 -14 -20 13 -34 11 -34 -3 0 -11 3
-11 16 -1 14 11 14 10 2 -6 -10 -13 -17 -15 -27 -6 -10 8 -12 6 -9 -11 3 -17
1 -19 -9 -11 -10 8 -17 7 -26 -4 -7 -8 -17 -12 -23 -8 -6 4 -7 1 -3 -6 6 -9
13 -8 29 6 18 14 17 13 -2 -9 -17 -20 -28 -25 -36 -18 -9 7 -16 6 -25 -5 -7
-8 -17 -12 -23 -8 -6 4 -7 1 -3 -6 6 -9 13 -8 29 6 18 14 17 13 -2 -9 -17 -20
-28 -25 -36 -18 -9 7 -16 6 -25 -5 -7 -8 -17 -12 -23 -8 -6 4 -7 1 -3 -6 6 -9
13 -8 29 6 18 14 17 13 -2 -9 -20 -23 -27 -26 -40 -16 -9 7 -13 8 -8 3 4 -4
-3 -19 -15 -32 -16 -17 -25 -20 -34 -12 -10 8 -12 6 -9 -10 3 -15 0 -19 -8
-14 -20 13 -34 11 -34 -3 0 -11 3 -11 16 -1 14 11 14 10 2 -6 -10 -13 -17 -15
-27 -6 -10 8 -12 6 -9 -10 3 -15 0 -19 -8 -14 -20 13 -34 11 -34 -3 0 -11 3
-11 16 -1 14 11 14 10 2 -6 -10 -13 -17 -15 -27 -6 -10 8 -12 6 -9 -11 3 -17
1 -19 -9 -11 -10 8 -17 7 -26 -4 -7 -8 -17 -12 -23 -8 -6 4 -7 1 -3 -6 6 -9
13 -8 29 6 18 14 17 13 -2 -9 -17 -20 -28 -25 -36 -18 -9 7 -16 6 -25 -5 -7
-8 -17 -12 -23 -8 -6 4 -7 1 -3 -6 6 -9 13 -8 29 6 18 14 17 13 -2 -9 -17 -20
-28 -25 -36 -18 -9 7 -16 6 -25 -5 -7 -8 -17 -12 -23 -8 -6 4 -7 1 -3 -6 6 -9
13 -8 29 6 18 14 17 13 -2 -9 -18 -21 -27 -25 -37 -17 -10 8 -12 6 -9 -10 3
-15 0 -19 -8 -14 -20 13 -34 11 -34 -3 0 -11 3 -11 16 -1 14 11 14 10 2 -6
-10 -13 -17 -15 -27 -6 -10 8 -12 6 -9 -10 3 -15 0 -19 -8 -14 -20 13 -34 11
-34 -3 0 -11 3 -11 16 -1 14 11 14 10 2 -6 -10 -13 -17 -15 -27 -6 -10 8 -12
6 -9 -10 3 -15 0 -19 -8 -14 -20 13 -34 11 -34 -3 0 -11 4 -11 16 -2 9 7 5 0
-8 -15 -17 -19 -28 -24 -36 -17 -9 7 -16 6 -25 -5 -7 -8 -17 -12 -23 -8 -6 4
-7 1 -3 -6 6 -9 13 -8 29 6 18 14 17 13 -2 -9 -17 -20 -28 -25 -36 -18 -9 7
-16 6 -25 -5 -7 -8 -17 -12 -23 -8 -6 4 -7 1 -3 -6 6 -9 13 -8 29 6 18 14 17
13 -2 -9 -17 -20 -28 -25 -36 -18 -9 7 -16 6 -25 -5 -7 -8 -17 -12 -23 -8 -6
4 -7 1 -3 -6 6 -9 13 -8 29 6 18 14 17 13 -2 -9 -18 -21 -27 -25 -37 -17 -10
8 -12 6 -9 -10 3 -15 0 -19 -8 -14 -20 13 -34 11 -34 -3 0 -11 3 -11 16 -1 14
11 14 10 2 -6 -10 -13 -17 -15 -27 -6 -10 8 -12 6 -9 -10 3 -15 0 -19 -8 -14
-20 13 -34 11 -34 -3 0 -11 3 -11 16 -1 14 11 14 10 2 -6 -10 -13 -17 -15 -27
-6 -10 8 -12 6 -9 -11 3 -17 1 -19 -9 -11 -10 8 -17 7 -26 -4 -7 -8 -17 -12
-23 -8 -6 4 -7 1 -3 -6 6 -9 13 -8 29 6 18 14 17 13 -2 -9 -17 -20 -28 -25
-36 -18 -9 7 -16 6 -25 -5 -7 -8 -17 -12 -23 -8 -6 4 -7 1 -3 -6 6 -9 13 -8
29 6 18 14 17 13 -2 -9 -17 -20 -28 -25 -36 -18 -9 7 -16 6 -25 -5 -7 -8 -17
-12 -23 -8 -6 4 -7 1 -3 -6 6 -9 13 -8 29 6 18 14 17 13 -2 -9 -20 -23 -27
-26 -40 -16 -9 7 -13 8 -8 3 4 -4 -3 -19 -15 -32 -16 -17 -25 -20 -34 -12 -10
8 -12 6 -9 -10 3 -15 0 -19 -8 -14 -20 13 -34 11 -34 -3 0 -11 3 -11 16 -1 14
11 14 10 2 -6 -10 -13 -17 -15 -27 -6 -10 8 -12 6 -9 -10 3 -15 0 -19 -8 -14
-20 13 -34 11 -34 -3 0 -11 3 -11 16 -1 14 11 14 10 2 -6 -10 -13 -17 -15 -27
-6 -10 8 -12 7 -9 -8 2 -11 -2 -20 -8 -20 -9 0 -10 28 -5 106 27 392 165 852
369 1226 157 289 347 544 579 775 413 413 879 696 1450 879 260 83 608 150
860 164 135 8 455 6 560 -3z"/>
</g>
</svg>
